<?xml version="1.0" encoding="UTF-8"?>
<svg width="10px" height="10px" viewBox="0 0 10 10" version="1.1" xmlns="http://www.w3.org/2000/svg" xmlns:xlink="http://www.w3.org/1999/xlink">
    <!-- Generator: Sketch 55.2 (78181) - https://sketchapp.com -->
    <title>delete</title>
    <desc>Created with Sketch.</desc>
    <defs>
        <path d="M9.87727138,9.28874444 L5.58840992,4.99996094 L9.87695889,0.711177431 C10.0397638,0.548363659 10.0397638,0.284924101 9.87695889,0.122110329 C9.71415402,-0.040703443 9.45072887,-0.040703443 9.287924,0.122110329 L4.99937503,4.41089384 L0.711763511,0.123360339 C0.548958643,-0.0394534332 0.285533491,-0.0394534332 0.122728622,0.123360339 C-0.0400762464,0.286174111 -0.0400762464,0.549613669 0.122728622,0.712427441 L4.41034014,4.99996094 L0.122103651,9.28874444 C-0.0407012171,9.45155822 -0.0407012171,9.71499777 0.122103651,9.87781155 C0.203349843,9.95906218 0.309907348,10 0.416777339,10 C0.523647329,10 0.630204834,9.95906218 0.711451026,9.87781155 L4.99968751,5.58902804 L9.28854897,9.87781155 C9.36979517,9.95906218 9.47635267,10 9.58322266,10 C9.69009265,10 9.79665016,9.95906218 9.87789635,9.87781155 C10.0407012,9.71499777 10.0407012,9.45155822 9.87789635,9.28874444 L9.87727138,9.28874444 Z" id="path-1"></path>
    </defs>
    <g id="delete" stroke="none" stroke-width="1" fill="none" fill-rule="evenodd">
        <mask id="mask-2" fill="white">
            <use xlink:href="#path-1"></use>
        </mask>
        <use id="🎨-color" fill="#333333" xlink:href="#path-1"></use>
    </g>
</svg>